<svg width="30" height="34" viewBox="0 0 30 34" fill="none" xmlns="http://www.w3.org/2000/svg">
<path d="M16.2 12.2C16.2 11.8817 16.0736 11.5765 15.8485 11.3515C15.6235 11.1264 15.3183 11 15 11C14.6817 11 14.3765 11.1264 14.1515 11.3515C13.9264 11.5765 13.8 11.8817 13.8 12.2V15.8H10.2C9.88174 15.8 9.57652 15.9264 9.35147 16.1515C9.12643 16.3765 9 16.6817 9 17C9 17.3183 9.12643 17.6235 9.35147 17.8485C9.57652 18.0736 9.88174 18.2 10.2 18.2H13.8V21.8C13.8 22.1183 13.9264 22.4235 14.1515 22.6485C14.3765 22.8736 14.6817 23 15 23C15.3183 23 15.6235 22.8736 15.8485 22.6485C16.0736 22.4235 16.2 22.1183 16.2 21.8V18.2H19.8C20.1183 18.2 20.4235 18.0736 20.6485 17.8485C20.8736 17.6235 21 17.3183 21 17C21 16.6817 20.8736 16.3765 20.6485 16.1515C20.4235 15.9264 20.1183 15.8 19.8 15.8H16.2V12.2Z" fill="white"/>
<path d="M0 4.25C0 3.12283 0.526784 2.04183 1.46447 1.2448C2.40215 0.447767 3.67392 0 5 0L25 0C26.3261 0 27.5979 0.447767 28.5355 1.2448C29.4732 2.04183 30 3.12283 30 4.25V29.75C30 30.8772 29.4732 31.9582 28.5355 32.7552C27.5979 33.5522 26.3261 34 25 34H5C3.67392 34 2.40215 33.5522 1.46447 32.7552C0.526784 31.9582 0 30.8772 0 29.75V4.25ZM25 2.125H5C4.33696 2.125 3.70107 2.34888 3.23223 2.7474C2.76339 3.14591 2.5 3.68641 2.5 4.25V29.75C2.5 30.3136 2.76339 30.8541 3.23223 31.2526C3.70107 31.6511 4.33696 31.875 5 31.875H25C25.663 31.875 26.2989 31.6511 26.7678 31.2526C27.2366 30.8541 27.5 30.3136 27.5 29.75V4.25C27.5 3.68641 27.2366 3.14591 26.7678 2.7474C26.2989 2.34888 25.663 2.125 25 2.125Z" fill="white"/>
</svg>
