<svg width="30" height="34" viewBox="0 0 30 34" fill="none" xmlns="http://www.w3.org/2000/svg">
<path d="M25 0H5C3.67392 0 2.40215 0.447767 1.46447 1.2448C0.526784 2.04183 0 3.12283 0 4.25V29.75C0 30.8772 0.526784 31.9582 1.46447 32.7552C2.40215 33.5522 3.67392 34 5 34H25C26.3261 34 27.5979 33.5522 28.5355 32.7552C29.4732 31.9582 30 30.8772 30 29.75V4.25C30 3.12283 29.4732 2.04183 28.5355 1.2448C27.5979 0.447767 26.3261 0 25 0ZM16.25 12.75V15.9375H20C20.3315 15.9375 20.6495 16.0494 20.8839 16.2487C21.1183 16.448 21.25 16.7182 21.25 17C21.25 17.2818 21.1183 17.552 20.8839 17.7513C20.6495 17.9506 20.3315 18.0625 20 18.0625H16.25V21.25C16.25 21.5318 16.1183 21.802 15.8839 22.0013C15.6495 22.2006 15.3315 22.3125 15 22.3125C14.6685 22.3125 14.3505 22.2006 14.1161 22.0013C13.8817 21.802 13.75 21.5318 13.75 21.25V18.0625H10C9.66848 18.0625 9.35054 17.9506 9.11612 17.7513C8.8817 17.552 8.75 17.2818 8.75 17C8.75 16.7182 8.8817 16.448 9.11612 16.2487C9.35054 16.0494 9.66848 15.9375 10 15.9375H13.75V12.75C13.75 12.4682 13.8817 12.198 14.1161 11.9987C14.3505 11.7994 14.6685 11.6875 15 11.6875C15.3315 11.6875 15.6495 11.7994 15.8839 11.9987C16.1183 12.198 16.25 12.4682 16.25 12.75Z" fill="white"/>
</svg>
