<svg width="142" height="65" viewBox="0 0 142 65" fill="none" xmlns="http://www.w3.org/2000/svg">
<g id="Vector">
<g id="Vector_2">
<path d="M104.822 38.1455V26.337L110.454 31.9759V38.1455H104.822ZM96.2734 15.3577H119.036V20.9966H110.454V29.3886L104.822 23.7497V20.9966H96.2734V15.3577Z" fill="white"/>
<path d="M128.648 32.5066L142 32.5398V38.1787H123.015V25.2756L128.648 30.9145V32.5066ZM142 29.6208L129.873 29.654L122.982 22.7546V15.3909H142V21.0298H129.244L132.193 23.9819H142V29.6208Z" fill="white"/>
<path d="M20.6416 20.2669L20.741 20.3664C22.0332 22.2571 22.7289 24.4795 22.7289 26.8014C22.7289 29.0901 22.0332 31.3125 20.741 33.2032C20.7079 33.2364 20.6747 33.2695 20.6416 33.3027C18.5211 36.3544 15.0422 38.1787 11.3313 38.1787H0V24.4131L5.66567 30.0852V32.5066H11.3313C11.4639 32.5066 11.5964 32.5066 11.7289 32.5066C13.4518 32.4071 15.0091 31.5115 16.003 30.0852C16.003 30.052 16.003 30.052 16.003 30.052C16.6326 29.0901 16.9639 27.9623 16.9639 26.8014C16.9639 25.6404 16.6326 24.5127 15.9699 23.5507C14.9097 22.0249 13.1868 21.0961 11.3313 21.0961H5.66567V27.5311L0 21.8591V15.3909H11.3313C15.0422 15.3909 18.5211 17.2152 20.6416 20.2669Z" fill="white"/>
<path d="M32.2447 32.5066L45.5972 32.5398V38.1787H26.6122V25.2756L32.2447 30.9145V32.5066ZM45.5972 29.6208L33.4706 29.654L26.5791 22.7546V15.3909H45.5972V21.0298H32.8411L35.7899 23.9819H45.5972V29.6208Z" fill="white"/>
<path d="M69.3144 22.0581L69.2481 21.9586C69.2481 23.7166 68.5523 25.4082 67.3264 26.6687C68.5523 27.9292 69.2481 29.6208 69.2481 31.3789C69.2481 31.9427 69.1819 32.5066 69.0493 33.0374C68.3535 35.8236 65.968 37.847 63.0855 38.0792C62.9198 38.0792 62.7541 38.0792 62.5885 38.0792H49.5674V27.2989L55.1999 32.9378V33.17H61.3294C62.2903 33.17 63.0523 32.4071 63.0523 31.4452C63.0523 30.4833 62.2903 29.7203 61.3294 29.7203H55.1999V30.3837L49.5674 24.7448V15.3246H62.5885C65.6698 15.3246 68.3535 17.4143 69.1156 20.3996C69.2481 20.9303 69.3144 21.4942 69.3144 22.0581ZM55.1668 20.3664L55.1999 22.3234L56.6909 23.8161H61.2963C62.2571 23.8161 63.0192 23.0532 63.0192 22.0912C63.0192 21.1293 62.2571 20.3664 61.2963 20.3664H55.1668Z" fill="white"/>
<path d="M38.4002 60.1704L42.9063 64.6816H33.2051V46.4513H37.7111V60.1704H38.4002ZM40.4677 60.1704H45.8749V64.6816H44.9737L40.4677 60.1704Z" fill="url(#paint0_linear_94_176)"/>
<path d="M48.5289 64.6816L56.3216 51.8647L58.9457 56.2166L53.8036 64.6816H48.5289ZM59.7939 46.1329L71.0325 64.7081H65.7578L57.1698 50.4583L59.7939 46.1329Z" fill="url(#paint1_linear_94_176)"/>
<path d="M88.1399 51.8116L88.0869 51.732C88.0869 53.1384 87.5303 54.4917 86.5495 55.5001C87.5303 56.5085 88.0869 57.8618 88.0869 59.2682C88.0869 59.7193 88.0339 60.1704 87.9278 60.595C87.3712 62.824 85.4628 64.4427 83.1568 64.6285C83.0242 64.6285 82.8917 64.6285 82.7592 64.6285H72.3423V56.0043L76.8483 60.5154V60.7012H81.7519C82.5206 60.7012 83.1302 60.0908 83.1302 59.3213C83.1302 58.5517 82.5206 57.9414 81.7519 57.9414H76.8483V58.4721L72.3423 53.961V46.4248H82.7592C85.2242 46.4248 87.3712 48.0965 87.9809 50.4848C88.0869 50.9094 88.1399 51.3605 88.1399 51.8116ZM76.8218 50.4583L76.8483 52.0239L78.0411 53.218H81.7254C82.4941 53.218 83.1037 52.6077 83.1037 51.8381C83.1037 51.0686 82.4941 50.4583 81.7254 50.4583H76.8218Z" fill="url(#paint2_linear_94_176)"/>
<path d="M97.3988 46.4513H109.008V50.9624H101.905L97.3988 46.4513ZM108.77 57.3842L108.611 57.6761C108.77 58.2068 108.849 58.764 108.849 59.3213C108.849 59.8785 108.77 60.4358 108.611 60.9665C108.266 62.1076 107.551 63.1425 106.596 63.8589C105.616 64.602 104.423 65 103.177 65H90.6397V60.4889H103.177C103.813 60.4889 104.343 59.9582 104.343 59.3213C104.343 58.6844 103.813 58.1537 103.177 58.1537H96.312C95.7554 58.1537 95.1988 58.0741 94.6687 57.9149C93.7675 57.6495 92.9458 57.1453 92.2831 56.4819C91.6205 55.8185 91.1169 54.9959 90.8518 54.0937C90.6928 53.563 90.6132 53.0057 90.6132 52.4485C90.6132 51.8912 90.6928 51.3339 90.8518 50.8032C91.1169 49.901 91.6205 49.0784 92.2831 48.415C92.9458 47.7516 93.7675 47.2474 94.6687 46.982C94.8012 46.929 94.9337 46.9024 95.0663 46.8759L95.2518 46.8228L99.6783 51.2543H96.312C95.6759 51.2543 95.1458 51.7851 95.1458 52.4219C95.1458 53.0588 95.6759 53.5895 96.312 53.5895H103.177C103.204 53.5895 103.23 53.5895 103.257 53.5895H103.283C103.31 53.5895 103.336 53.5895 103.363 53.5895H103.416C103.469 53.5895 103.522 53.5895 103.575 53.5895C103.601 53.5895 103.628 53.5895 103.654 53.5895H103.681C103.707 53.5895 103.734 53.5895 103.76 53.5895C103.813 53.5895 103.866 53.5895 103.919 53.5895C103.946 53.5895 103.972 53.5895 103.999 53.5895H104.025C104.078 53.5895 104.131 53.5895 104.184 53.5895H104.264C104.317 53.5895 104.37 53.5895 104.423 53.5895H104.449C104.502 53.5895 104.555 53.616 104.608 53.6426H104.635L104.688 53.6691C104.714 53.6691 104.741 53.6691 104.767 53.6691C104.82 53.6956 104.874 53.7222 104.927 53.7487H104.953C105.059 53.7753 105.165 53.8018 105.271 53.8283H105.298C105.351 53.8549 105.404 53.8814 105.457 53.9079H105.483C105.563 53.9345 105.642 53.961 105.722 53.9875C105.748 53.9875 105.775 53.9875 105.801 53.9875C105.854 54.0141 105.907 54.0406 105.96 54.0672C106.04 54.1202 106.119 54.1733 106.199 54.2264L106.331 54.306C106.384 54.3325 106.437 54.359 106.49 54.3856C106.543 54.4121 106.596 54.4387 106.649 54.4652L106.676 54.4917C106.782 54.5713 106.888 54.6509 106.994 54.7306C107.02 54.7571 107.074 54.7836 107.127 54.8367C107.153 54.8632 107.18 54.8898 107.206 54.9163L107.259 54.9694C107.286 54.9694 107.312 54.9694 107.339 54.9959C107.365 55.0224 107.392 55.049 107.418 55.0755C107.498 55.1551 107.577 55.2347 107.657 55.3143C107.683 55.3409 107.71 55.3674 107.736 55.394L107.789 55.447C107.789 55.4736 107.789 55.5001 107.789 55.5266C107.816 55.5532 107.842 55.5797 107.869 55.6062L107.895 55.6328C107.922 55.6858 107.948 55.7389 107.975 55.792C108.001 55.8185 108.028 55.8451 108.054 55.8716C108.081 55.8981 108.107 55.9247 108.134 55.9512L108.16 56.0043C108.24 56.1635 108.319 56.3227 108.399 56.4819L108.425 56.5085C108.478 56.6146 108.531 56.7208 108.584 56.8269L108.611 56.88L108.69 57.1188C108.69 57.1453 108.69 57.1719 108.69 57.1984L108.77 57.3842Z" fill="url(#paint3_linear_94_176)"/>
<path d="M81.0783 4.9755H88.9102L89.3048 4.99466L89.5612 5.07126L89.7782 5.20532L89.9163 5.33938L90.0347 5.56919L90.0742 5.76071V5.91392L90.0347 6.08628L89.9163 6.29694L89.6993 6.50761L89.4231 6.67997L88.7129 7.00554L88.5946 7.1779L88.4762 7.42687L88.4367 7.65669V16.2365L88.4762 16.6769L88.5551 17.06L88.7327 17.5388L89.1075 18.2857L89.3837 18.7453L89.6796 19.2815L89.9361 19.7603L90.1728 20.1816L90.449 20.6796L90.7844 21.2924L91.0408 21.752L91.317 22.25L91.5735 22.6904L91.9088 23.3224L92.1456 23.7438L92.4218 24.2417L92.619 24.6056L92.9741 25.2567L93.2701 25.793L93.5265 26.2334L93.8422 26.7697L94.2367 27.5166L94.5129 28.0145L94.8088 28.5316L95.0653 28.9721L95.3415 29.4892L95.5979 29.9488L95.8544 30.3893L96.1109 30.8489L96.3279 31.2319L96.4857 31.5383L96.7421 31.9788L97.0183 32.4576L97.2551 32.8789L97.5115 33.3386L97.7285 33.7982L97.8666 34.2004L97.9455 34.5834V35.3686L97.8666 35.7516L97.7483 36.0963L97.5904 36.4028L97.3932 36.7283L97.2156 36.9199L96.9 37.2263L96.5251 37.4944L96.1503 37.7051L95.7755 37.8583L95.4204 37.9732L94.8483 38.0881L94.2762 38.1455H75.732L75.1994 38.0881L74.7062 37.9923L74.1144 37.8008L73.7987 37.6476L73.5423 37.5135L73.3253 37.3603L73.128 37.2071L72.8715 36.9773L72.6545 36.7092L72.477 36.4411L72.3191 36.1347L72.2008 35.8282L72.1021 35.3303V34.6983L72.181 34.2578L72.2797 33.9323L72.4967 33.4535L72.7137 33.0321L72.9504 32.6108L73.2463 32.0937L73.562 31.5383L73.8185 31.0787L74.0552 30.6574L74.3117 30.2169L74.5681 29.7573L74.8048 29.3359L75.0613 28.8572L75.3178 28.4167L75.5545 27.9762L75.811 27.5357L76.0082 27.1718L76.2647 26.7314L76.5212 26.2526L76.7579 25.8313L77.0144 25.3716L77.2905 24.8737L77.5865 24.3375L77.8429 23.897L78.3558 22.9777L78.6518 22.4415L78.9082 22.001L79.1844 21.4839L79.4212 21.0626L79.7368 20.5072L79.9932 20.0667L80.23 19.6262L80.4667 19.2049L80.7626 18.6687L81.0586 18.1516L81.3742 17.5579L81.5518 17.0791L81.6504 16.6386L81.6898 16.2748V7.58008L81.5715 7.23536L81.4728 7.04384L81.098 6.85233L80.6245 6.64167L80.4075 6.50761L80.2103 6.33525L80.0919 6.14373L80.0327 5.95222V5.72241L80.1116 5.47344L80.23 5.28193L80.4273 5.10956L80.6245 5.01381L80.7035 4.99466L81.0783 4.9755ZM82.7946 6.71827L82.7354 6.75658L82.7157 6.89063L82.8143 7.44602L82.8341 8.53765L82.8538 11.8125V15.3747L82.8341 16.3897L82.7946 16.811L82.6762 17.3664L82.479 17.9409L82.2619 18.4006L82.0252 18.841L81.7885 19.2432L81.532 19.6837L81.2361 20.2199L80.9994 20.6413L80.7035 21.1583L80.4667 21.5605L80.1708 22.0968L79.8946 22.5947L79.6382 23.0352L79.4409 23.3799L79.1252 23.9353L78.849 24.4332L78.6518 24.7779L78.3361 25.3333L78.0402 25.8696L77.8824 26.176L77.8429 26.31L77.9021 26.4058L77.9218 26.4249L78.1388 26.4058L78.6123 26.31L79.4409 26.0611L80.6048 25.7355L81.098 25.6206L81.4137 25.5823L81.6898 25.5631H82.2028L82.7551 25.6206L83.2286 25.7164L84.5109 26.0228L85.2014 26.1568L85.9708 26.2717L86.7599 26.3483L87.115 26.3675H89.6204L90.3306 26.3292L91.0605 26.2526L91.9877 26.1377L92.185 26.0802L92.2639 26.0036L92.1653 25.7355L91.8694 25.2184L91.6327 24.8162L91.3367 24.28L91.1 23.8395L90.6265 22.9969L90.3109 22.4415L90.0544 21.9818L89.8177 21.5605L89.5415 21.0626L89.285 20.5838L89.1075 20.2774L88.634 19.3964L88.3973 18.9751L88.0619 18.3431L87.8449 17.9409L87.6279 17.4047L87.5095 17.0217L87.4504 16.7152L87.3912 16.1216V7.73329L87.4701 6.94809V6.73742L83.7218 6.71827H82.7946ZM78.1783 27.8038L77.9613 27.8421L77.7443 27.9571L77.5667 28.1486L77.3103 28.5507L77.0538 29.0104L76.7579 29.5658L76.5212 29.9871L76.1858 30.6191L75.9885 30.9638L75.6926 31.5L75.1994 32.4576L74.9035 33.0896L74.7062 33.5684L74.6273 33.8365L74.5878 34.1429V34.3344L74.6667 34.5834L74.7457 34.6983L74.8838 34.8132L74.9824 34.8515H75.2389L75.3769 34.7749L75.4953 34.6409L75.5545 34.4685L75.6531 34.0855L75.8504 33.5301L76.2055 32.764L76.4225 32.3235L76.6987 31.7682L76.9157 31.3277L77.1327 30.9063L77.3695 30.485L78.0599 29.1827L78.2769 28.7997L78.4348 28.4933L78.5531 28.2443L78.5729 28.1486V28.0145L78.4742 27.8804L78.3756 27.823L78.1783 27.8038ZM91.4946 28.9912L91.2973 29.0295L91.1 29.1253L90.8435 29.3359L90.6857 29.6041L90.6463 29.6998L90.6265 29.8147V30.1403L90.6857 30.3318L90.7844 30.5042L90.8633 30.5999L91.0803 30.7723L91.1986 30.8489L91.4551 30.9255H91.8891L92.0864 30.8489L92.3231 30.6765L92.4612 30.5233L92.6388 30.1594V29.6807L92.5599 29.4892L92.4218 29.3359L92.2639 29.1827L92.0864 29.087L91.8694 29.0104L91.7313 28.9912H91.4946ZM93.1517 30.0062L93.132 30.0637L93.1517 30.3127L93.4279 31.1362L93.5857 31.5766L93.8224 32.132L94 32.5917L94.1775 33.1279L94.2959 33.6641V34.411L94.1775 34.7941L94.0197 35.1005L93.7435 35.5027V35.5984L93.783 35.6367H94.1183L94.3156 35.5601L94.5524 35.3494L94.6905 35.2154L94.868 34.9856L95.0258 34.6983L95.1047 34.4685L95.1442 34.2195V33.7024L95.1047 33.4343L94.9272 32.8789L94.6707 32.3235L94.5129 32.0171L94.2367 31.5383L93.9013 31.0021L93.5857 30.485L93.349 30.1211L93.2503 30.0254L93.1517 30.0062ZM90.3306 32.0363L89.9952 32.1129L89.7782 32.2086L89.5415 32.3427L89.285 32.5534L89.1272 32.7066L88.9299 32.9747L88.7918 33.262L88.7129 33.6067L88.6932 33.9323L88.7327 34.2387L88.8116 34.4876L88.9299 34.6983L89.1469 34.9473L89.4034 35.1962L89.6007 35.3494L89.8966 35.5027L90.1531 35.5793L90.5082 35.6367H90.883L91.2381 35.5793L91.5932 35.4261L91.8102 35.3111L91.9877 35.1771L92.2048 34.9856L92.402 34.6983L92.5401 34.4302L92.619 34.2004L92.6388 34.1046V33.5301L92.5599 33.2428L92.402 32.9364L92.2442 32.7449L92.0469 32.5342L91.8299 32.3618L91.6327 32.2278L91.3565 32.1129L91.0408 32.0363H90.3306Z" fill="url(#paint4_linear_94_176)"/>
<path d="M86.3844 0H86.8812L87.1474 0.0777423L87.3958 0.233227L87.5733 0.408147L87.6975 0.563631L87.8395 0.835729L87.9104 1.04952L87.9282 1.1467V1.67146L87.8749 1.86581L87.7685 2.09904L87.591 2.3517L87.4668 2.48775L87.2006 2.68211L86.9345 2.77929L86.8635 2.79872H86.4199L86.1182 2.70154L85.923 2.58493L85.7278 2.41001L85.5504 2.19622L85.4261 1.96299L85.3552 1.72977V1.10783L85.4084 0.913472L85.5326 0.660809L85.6746 0.466454L85.8875 0.233227L86.065 0.116613L86.2956 0.0194356L86.3844 0Z" fill="url(#paint5_linear_94_176)"/>
</g>
</g>
<defs>
<linearGradient id="paint0_linear_94_176" x1="12.2414" y1="-5.47279e-06" x2="119.907" y2="18.8618" gradientUnits="userSpaceOnUse">
<stop stop-color="#2E46DF"/>
<stop offset="0.49" stop-color="#4C60E1"/>
<stop offset="1" stop-color="#8D99E3"/>
</linearGradient>
<linearGradient id="paint1_linear_94_176" x1="12.2414" y1="-5.47279e-06" x2="119.907" y2="18.8618" gradientUnits="userSpaceOnUse">
<stop stop-color="#2E46DF"/>
<stop offset="0.49" stop-color="#4C60E1"/>
<stop offset="1" stop-color="#8D99E3"/>
</linearGradient>
<linearGradient id="paint2_linear_94_176" x1="12.2414" y1="-5.47279e-06" x2="119.907" y2="18.8618" gradientUnits="userSpaceOnUse">
<stop stop-color="#2E46DF"/>
<stop offset="0.49" stop-color="#4C60E1"/>
<stop offset="1" stop-color="#8D99E3"/>
</linearGradient>
<linearGradient id="paint3_linear_94_176" x1="12.2414" y1="-5.47279e-06" x2="119.907" y2="18.8618" gradientUnits="userSpaceOnUse">
<stop stop-color="#2E46DF"/>
<stop offset="0.49" stop-color="#4C60E1"/>
<stop offset="1" stop-color="#8D99E3"/>
</linearGradient>
<linearGradient id="paint4_linear_94_176" x1="12.2414" y1="-5.47279e-06" x2="119.907" y2="18.8618" gradientUnits="userSpaceOnUse">
<stop stop-color="#2E46DF"/>
<stop offset="0.49" stop-color="#4C60E1"/>
<stop offset="1" stop-color="#8D99E3"/>
</linearGradient>
<linearGradient id="paint5_linear_94_176" x1="12.2414" y1="-5.47279e-06" x2="119.907" y2="18.8618" gradientUnits="userSpaceOnUse">
<stop stop-color="#2E46DF"/>
<stop offset="0.49" stop-color="#4C60E1"/>
<stop offset="1" stop-color="#8D99E3"/>
</linearGradient>
</defs>
</svg>
