<svg width="26" height="30" viewBox="0 0 26 30" fill="none" xmlns="http://www.w3.org/2000/svg">
<g id="[icon] Exit (pop-up)">
<path id="Vector" d="M12.3605 0C12.7543 0.000471179 13.1331 0.163132 13.4194 0.454747C13.7058 0.746363 13.8781 1.14492 13.9012 1.56899C13.9243 1.99306 13.7964 2.41063 13.5436 2.73639C13.2909 3.06214 12.9323 3.27149 12.5413 3.32167L12.3605 3.33333H4.63519C4.25675 3.33339 3.89149 3.48326 3.60869 3.75453C3.32589 4.02579 3.14522 4.39958 3.10094 4.805L3.09013 5V25C3.09018 25.4082 3.22911 25.8022 3.48059 26.1073C3.73206 26.4123 4.07858 26.6072 4.45442 26.655L4.63519 26.6667H11.588C11.9818 26.6671 12.3606 26.8298 12.6469 27.1214C12.9333 27.413 13.1056 27.8116 13.1287 28.2357C13.1517 28.6597 13.0238 29.0773 12.7711 29.4031C12.5183 29.7288 12.1598 29.9382 11.7687 29.9883L11.588 30H4.63519C3.45289 30.0001 2.31525 29.5128 1.45505 28.6379C0.594839 27.7629 0.0770871 26.5665 0.0077255 25.2933L7.20069e-09 25V5C-6.58533e-05 3.72465 0.451661 2.49748 1.26276 1.56957C2.07385 0.641655 3.183 0.0831541 4.36326 0.00833352L4.63519 0H12.3605ZM21.1782 9.10667L25.5476 13.8217C25.8373 14.1342 26 14.5581 26 15C26 15.4419 25.8373 15.8658 25.5476 16.1783L21.1782 20.8933C20.8883 21.2058 20.4951 21.3813 20.0853 21.3812C19.6754 21.381 19.2824 21.2052 18.9927 20.8925C18.703 20.5798 18.5403 20.1557 18.5404 19.7136C18.5406 19.2715 18.7035 18.8475 18.9935 18.535L20.7255 16.6667H12.3605C11.9507 16.6667 11.5577 16.4911 11.268 16.1785C10.9782 15.8659 10.8154 15.442 10.8154 15C10.8154 14.558 10.9782 14.134 11.268 13.8215C11.5577 13.5089 11.9507 13.3333 12.3605 13.3333H20.7255L18.9935 11.465C18.7035 11.1525 18.5406 10.7285 18.5404 10.2864C18.5403 9.84431 18.703 9.42023 18.9927 9.1075C19.2824 8.79477 19.6754 8.61898 20.0853 8.61883C20.4951 8.61867 20.8883 8.79415 21.1782 9.10667Z" fill="#C22D21"/>
</g>
</svg>
