<svg width="30" height="32" viewBox="0 0 30 32" fill="none" xmlns="http://www.w3.org/2000/svg">
<path d="M30 15.3594V30.72C30 31.0594 29.8683 31.385 29.6339 31.6251C29.3995 31.8651 29.0815 32 28.75 32H20C19.6685 32 19.3505 31.8651 19.1161 31.6251C18.8817 31.385 18.75 31.0594 18.75 30.72V22.3996C18.75 22.2299 18.6842 22.0671 18.5669 21.9471C18.4497 21.827 18.2908 21.7596 18.125 21.7596H11.875C11.7092 21.7596 11.5503 21.827 11.4331 21.9471C11.3158 22.0671 11.25 22.2299 11.25 22.3996V30.72C11.25 31.0594 11.1183 31.385 10.8839 31.6251C10.6495 31.8651 10.3315 32 10 32H1.25C0.918479 32 0.600537 31.8651 0.366117 31.6251C0.131696 31.385 0 31.0594 0 30.72V15.3594C0.000307327 14.6805 0.263901 14.0296 0.732812 13.5497L13.2328 0.749241C13.7016 0.269493 14.3372 0 15 0C15.6628 0 16.2984 0.269493 16.7672 0.749241L29.2672 13.5497C29.7361 14.0296 29.9997 14.6805 30 15.3594Z" fill="white"/>
</svg>
