<svg xmlns="http://www.w3.org/2000/svg" width="30" height="32" viewBox="0 0 30 32" fill="none">
    <path d="M11.4331 21.9471L10.7176 21.2484C11.0204 20.9383 11.4363 20.7596 11.875 20.7596H18.125C18.5637 20.7596 18.9796 20.9383 19.2824 21.2484L18.5669 21.9471L19.2824 21.2484C19.5844 21.5577 19.75 21.9722 19.75 22.3996V30.72C19.75 30.8018 19.782 30.8756 19.8316 30.9264C19.8804 30.9764 19.9415 31 20 31H28.75C28.8085 31 28.8696 30.9764 28.9184 30.9264C28.968 30.8756 29 30.8018 29 30.72V15.3598C28.9998 14.9386 28.836 14.5393 28.552 14.2486L28.5517 14.2484L16.052 1.44814C16.0519 1.44806 16.0518 1.44798 16.0517 1.4479C15.7686 1.15823 15.3898 1 15 1C14.6102 1 14.2314 1.15823 13.9483 1.4479C13.9482 1.44798 13.9481 1.44806 13.948 1.44814L1.44827 14.2484L1.44804 14.2486C1.16408 14.5392 1.00031 14.9383 1 15.3594L11.4331 21.9471ZM11.4331 21.9471L10.7176 21.2484C10.4156 21.5577 10.25 21.9722 10.25 22.3996M11.4331 21.9471L10.25 22.3996M10.25 22.3996V30.72M10.25 22.3996V30.72M10.25 30.72C10.25 30.8018 10.218 30.8756 10.1684 30.9264M10.25 30.72L10.1684 30.9264M10.1684 30.9264C10.1196 30.9764 10.0585 31 10 31M10.1684 30.9264L10 31M10 31H1.25M10 31H1.25M1.25 31C1.19146 31 1.13038 30.9764 1.08157 30.9264M1.25 31L1.08157 30.9264M1.08157 30.9264C1.03197 30.8756 1 30.8018 1 30.72M1.08157 30.9264L1 30.72M1 30.72V15.3596V30.72Z" stroke="white" stroke-width="2"/>
</svg>
