<svg width="30" height="32" viewBox="0 0 30 32" fill="none" xmlns="http://www.w3.org/2000/svg">
<path d="M20.3307 15.995C20.3307 16.192 20.2892 16.3871 20.2084 16.5691C20.1276 16.751 20.0092 16.9164 19.86 17.0557C19.7107 17.195 19.5336 17.3055 19.3385 17.3809C19.1435 17.4563 18.9345 17.4951 18.7235 17.4951C18.5124 17.4951 18.3034 17.4563 18.1084 17.3809C17.9134 17.3055 17.7362 17.195 17.587 17.0557C17.4377 16.9164 17.3193 16.751 17.2386 16.5691C17.1578 16.3871 17.1162 16.192 17.1162 15.995C17.1162 15.5972 17.2856 15.2156 17.587 14.9343C17.8884 14.653 18.2972 14.4949 18.7235 14.4949C19.1497 14.4949 19.5586 14.653 19.86 14.9343C20.1614 15.2156 20.3307 15.5972 20.3307 15.995ZM14.1546 0.0222998C13.9985 -0.00899282 13.8369 -0.00733218 13.6815 0.02716C13.5262 0.0616521 13.3811 0.128104 13.2568 0.221657C13.1326 0.315211 13.0323 0.433501 12.9633 0.567881C12.8943 0.70226 12.8583 0.849332 12.8581 0.998343V30.9997C12.858 31.1488 12.8937 31.2961 12.9626 31.4308C13.0314 31.5654 13.1317 31.6839 13.256 31.7777C13.3803 31.8715 13.5255 31.9381 13.681 31.9727C13.8365 32.0073 13.9983 32.009 14.1546 31.9777L29.1556 28.9756C29.3953 28.927 29.6099 28.8033 29.7635 28.6249C29.9172 28.4466 30.0007 28.2244 30 27.9955V3.99447C29.9996 3.76601 29.9154 3.54457 29.7614 3.367C29.6073 3.18942 29.3928 3.06641 29.1535 3.01843L14.1546 0.0222998ZM15.0011 29.7616V2.2344L27.8591 4.80451V27.1895L15.0011 29.7616ZM10.7193 29.9916V27.9915H2.14301V4.00047H10.7193V2.00039H1.0715C0.787324 2.00039 0.514783 2.10575 0.313837 2.29329C0.112891 2.48084 0 2.7352 0 3.00043V28.9916C0 29.2568 0.112891 29.5112 0.313837 29.6987C0.514783 29.8863 0.787324 29.9916 1.0715 29.9916H10.7193Z" fill="white"/>
</svg>
