<svg width="30" height="32" viewBox="0 0 30 32" fill="none" xmlns="http://www.w3.org/2000/svg">
<path d="M13.2567 0.222204C13.3809 0.128512 13.526 0.0619266 13.6814 0.0273202C13.8367 -0.00728622 13.9984 -0.00903827 14.1546 0.0221924L29.1557 3.02037C29.3949 3.06882 29.6092 3.1923 29.7629 3.37025C29.9165 3.54821 30.0002 3.7699 30 3.99843V27.9999C30.0001 28.2287 29.9161 28.4506 29.762 28.6286C29.608 28.8066 29.3932 28.9299 29.1535 28.9779L14.1524 31.9781C13.9967 32.009 13.8355 32.0072 13.6806 31.9726C13.5257 31.9381 13.381 31.8718 13.257 31.7785C13.133 31.6852 13.0329 31.5673 12.9639 31.4333C12.8949 31.2993 12.8587 31.1527 12.8581 31.0041V1.00225C12.8581 0.853024 12.8939 0.705695 12.9629 0.571066C13.0319 0.436436 13.1322 0.31792 13.2567 0.224205M20.3629 16.0012C20.3629 15.6033 20.1935 15.2218 19.8921 14.9404C19.5907 14.6591 19.1819 14.5011 18.7556 14.5011C18.3294 14.5011 17.9205 14.6591 17.6191 14.9404C17.3177 15.2218 17.1484 15.6033 17.1484 16.0012C17.1484 16.399 17.3177 16.7806 17.6191 17.0619C17.9205 17.3432 18.3294 17.5013 18.7556 17.5013C19.1819 17.5013 19.5907 17.3432 19.8921 17.0619C20.1935 16.7806 20.3629 16.399 20.3629 16.0012ZM10.7193 2.00431H1.07151C0.787324 2.00431 0.514783 2.10968 0.313837 2.29722C0.112891 2.48477 0 2.73914 0 3.00437V28.9959C0 29.2612 0.112891 29.5156 0.313837 29.7031C0.514783 29.8906 0.787324 29.996 1.07151 29.996H10.7193V2.00431Z" fill="white"/>
</svg>
