<svg width="30" height="24" viewBox="0 0 30 24" fill="none" xmlns="http://www.w3.org/2000/svg">
<path fill-rule="evenodd" clip-rule="evenodd" d="M12 0H18C23.6565 0 26.4855 -1.78814e-07 28.242 1.758C29.9985 3.516 30 6.3435 30 12C30 17.6565 30 20.4855 28.242 22.242C26.484 23.9985 23.6565 24 18 24H12C6.3435 24 3.5145 24 1.758 22.242C0.00149989 20.484 0 17.6565 0 12C0 6.3435 -1.78814e-07 3.5145 1.758 1.758C3.516 0.00149989 6.3435 0 12 0ZM16.875 7.5C16.875 7.20163 16.9935 6.91548 17.2045 6.70451C17.4155 6.49353 17.7016 6.375 18 6.375H25.5C25.7984 6.375 26.0845 6.49353 26.2955 6.70451C26.5065 6.91548 26.625 7.20163 26.625 7.5C26.625 7.79837 26.5065 8.08452 26.2955 8.29549C26.0845 8.50647 25.7984 8.625 25.5 8.625H18C17.7016 8.625 17.4155 8.50647 17.2045 8.29549C16.9935 8.08452 16.875 7.79837 16.875 7.5ZM18.375 12C18.375 11.7016 18.4935 11.4155 18.7045 11.2045C18.9155 10.9935 19.2016 10.875 19.5 10.875H25.5C25.7984 10.875 26.0845 10.9935 26.2955 11.2045C26.5065 11.4155 26.625 11.7016 26.625 12C26.625 12.2984 26.5065 12.5845 26.2955 12.7955C26.0845 13.0065 25.7984 13.125 25.5 13.125H19.5C19.2016 13.125 18.9155 13.0065 18.7045 12.7955C18.4935 12.5845 18.375 12.2984 18.375 12ZM19.875 16.5C19.875 16.2016 19.9935 15.9155 20.2045 15.7045C20.4155 15.4935 20.7016 15.375 21 15.375H25.5C25.7984 15.375 26.0845 15.4935 26.2955 15.7045C26.5065 15.9155 26.625 16.2016 26.625 16.5C26.625 16.7984 26.5065 17.0845 26.2955 17.2955C26.0845 17.5065 25.7984 17.625 25.5 17.625H21C20.7016 17.625 20.4155 17.5065 20.2045 17.2955C19.9935 17.0845 19.875 16.7984 19.875 16.5ZM13.5 7.5C13.5 8.29565 13.1839 9.05871 12.6213 9.62132C12.0587 10.1839 11.2956 10.5 10.5 10.5C9.70435 10.5 8.94129 10.1839 8.37868 9.62132C7.81607 9.05871 7.5 8.29565 7.5 7.5C7.5 6.70435 7.81607 5.94129 8.37868 5.37868C8.94129 4.81607 9.70435 4.5 10.5 4.5C11.2956 4.5 12.0587 4.81607 12.6213 5.37868C13.1839 5.94129 13.5 6.70435 13.5 7.5ZM10.5 19.5C16.5 19.5 16.5 18.1575 16.5 16.5C16.5 14.8425 13.815 13.5 10.5 13.5C7.185 13.5 4.5 14.8425 4.5 16.5C4.5 18.1575 4.5 19.5 10.5 19.5Z" fill="white"/>
</svg>
