<svg width="30" height="24" viewBox="0 0 30 24" fill="none" xmlns="http://www.w3.org/2000/svg">
<path d="M11 11C12.6569 11 14 9.65685 14 8C14 6.34315 12.6569 5 11 5C9.34315 5 8 6.34315 8 8C8 9.65685 9.34315 11 11 11Z" stroke="white" stroke-width="2"/>
<path d="M17 17C17 18.6575 17 20 11 20C5 20 5 18.6575 5 17C5 15.3425 7.685 14 11 14C14.315 14 17 15.3425 17 17Z" stroke="white" stroke-width="2"/>
<path d="M1 12C1 9.14347 1.00213 7.10152 1.21083 5.5498C1.41566 4.02682 1.80282 3.12683 2.4648 2.46541C3.12722 1.80355 4.02774 1.41637 5.55049 1.21137C7.10199 1.0025 9.14363 1 12 1H18C20.8565 1 22.8985 1.00213 24.4502 1.21083C25.9732 1.41566 26.8732 1.80282 27.5346 2.4648C28.1964 3.12723 28.5836 4.02774 28.7886 5.55049C28.9975 7.10199 29 9.14363 29 12C29 14.8565 28.9979 16.8985 28.7892 18.4502C28.5843 19.9732 28.1972 20.8732 27.5352 21.5346C26.8728 22.1964 25.9723 22.5836 24.4495 22.7886C22.898 22.9975 20.8564 23 18 23H12C9.14347 23 7.10152 22.9979 5.5498 22.7892C4.02682 22.5843 3.12683 22.1972 2.46541 21.5352C1.80355 20.8728 1.41637 19.9723 1.21137 18.4495C1.0025 16.898 1 14.8564 1 12Z" stroke="white" stroke-width="2"/>
<path d="M26 12.5H19.6M26 8H18M26 17H21.2" stroke="white" stroke-width="2" stroke-linecap="round"/>
</svg>
