<svg width="30" height="28" viewBox="0 0 30 28" fill="none" xmlns="http://www.w3.org/2000/svg">
<path d="M11.3633 1.24171L11.3633 1.24168C11.1965 1.1215 11.001 1.04257 10.7939 1.01302C10.5877 0.983623 10.3776 1.00422 10.1821 1.07263C8.66283 1.62124 7.25238 2.42454 6.0131 3.44637C5.8573 3.57717 5.73765 3.74211 5.66306 3.92607C5.58817 4.11079 5.56057 4.31002 5.58212 4.50674L5.58303 4.51498L5.58299 4.51498C5.71405 5.81015 5.48428 7.10123 4.82035 8.23133C4.15844 9.36207 3.13923 10.1994 1.94142 10.7308L1.93524 10.7336L1.93523 10.7335C1.74487 10.8165 1.57973 10.9433 1.45331 11.1016L0.678845 10.4831L1.45331 11.1016C1.32747 11.2592 1.2436 11.4433 1.20761 11.6376C0.930616 13.2012 0.930798 14.8002 1.20815 16.3638L1.2084 16.3651C1.28119 16.7789 1.57275 17.1041 1.94172 17.2691C3.14117 17.7998 4.15933 18.6393 4.82185 19.767L4.82282 19.7686C5.48406 20.8991 5.71408 22.1878 5.583 23.4833C5.54436 23.8653 5.67699 24.275 6.00983 24.5492L6.01036 24.5497C7.25024 25.5725 8.66156 26.3766 10.1818 26.9256C10.3772 26.9938 10.5871 27.0143 10.793 26.9849C11 26.9554 11.1953 26.8765 11.362 26.7565L11.3688 26.7516L11.3688 26.7517C12.4382 25.9951 13.682 25.5479 15 25.5479C16.3183 25.5479 17.5605 25.9953 18.6297 26.7517L18.6298 26.7517C18.957 26.9832 19.3978 27.0768 19.8141 26.9271C21.3359 26.378 22.7487 25.5735 23.9896 24.5497L23.9902 24.5492C24.3243 24.274 24.4564 23.8655 24.4172 23.4853L24.417 23.4833C24.2861 22.1898 24.5135 20.8986 25.1793 19.7676C25.8414 18.6362 26.8608 17.8005 28.0578 17.2693C28.4248 17.1061 28.7187 16.7797 28.7916 16.3651L28.7918 16.3638C29.0692 14.8002 29.0694 13.2012 28.7924 11.6376C28.7564 11.4433 28.6725 11.2592 28.5467 11.1016L29.3281 10.4775L28.5467 11.1016C28.4203 10.9433 28.2551 10.8165 28.0648 10.7335L28.0586 10.7308L28.0586 10.7308C26.8601 10.1991 25.841 9.36141 25.1778 8.23081L11.3633 1.24171ZM11.3633 1.24171L11.3703 1.24666M11.3633 1.24171L11.3703 1.24666M11.3703 1.24666C12.4396 2.00311 13.6833 2.45042 15 2.45042C16.3175 2.45042 17.5606 2.0011 18.6297 1.24772L18.6297 1.24776L18.638 1.24184C18.8047 1.12179 19 1.04294 19.207 1.0134C19.4129 0.984009 19.6228 1.0045 19.8182 1.07271C21.3373 1.62132 22.7477 2.42458 23.9869 3.44636C24.1427 3.57715 24.2624 3.7421 24.3369 3.92606C24.4118 4.11079 24.4394 4.31002 24.4179 4.50674L24.4178 4.50674M11.3703 1.24666L24.4178 4.50674M24.4178 4.50674L24.417 4.51498M24.4178 4.50674L24.417 4.51498M24.417 4.51498C24.2861 5.8089 24.5137 7.09998 25.1778 8.23073L24.417 4.51498ZM24.626 25.3211C25.2514 24.8058 25.4809 24.0514 25.4119 23.3827C25.2994 22.271 25.4974 21.1977 26.0419 20.2735L24.626 25.3211ZM11.1169 10.1547C10.0838 11.1716 9.50046 12.5542 9.50046 13.9992C9.50046 15.4442 10.0838 16.8267 11.1169 17.8436C12.1494 18.8599 13.5465 19.4281 15 19.4281C16.4535 19.4281 17.8506 18.8599 18.8831 17.8436C19.9162 16.8267 20.4995 15.4442 20.4995 13.9992C20.4995 12.5542 19.9162 11.1716 18.8832 10.1547C17.8506 9.13839 16.4535 8.57019 15 8.57019C13.5465 8.57019 12.1494 9.13839 11.1169 10.1547Z" stroke="white" stroke-width="2"/>
</svg>
