<svg width="30" height="28" viewBox="0 0 30 28" fill="none" xmlns="http://www.w3.org/2000/svg">
<path fill-rule="evenodd" clip-rule="evenodd" d="M11.9478 0.430285C11.6491 0.215114 11.3014 0.0752859 10.9351 0.0230398C10.5687 -0.0292064 10.195 0.00772157 9.84653 0.130592C8.21724 0.718412 6.70394 1.58008 5.37399 2.67725C5.09225 2.9127 4.87333 3.21245 4.73634 3.55033C4.59934 3.88821 4.54844 4.25396 4.58807 4.61566C4.70056 5.72733 4.50108 6.80061 3.95814 7.72479C3.41669 8.65044 2.57078 9.3576 1.53589 9.81674C1.19737 9.96419 0.900728 10.1911 0.671939 10.4775C0.443149 10.764 0.289185 11.1013 0.223523 11.4599C-0.0745076 13.14 -0.0745076 14.8583 0.223523 16.5384C0.363008 17.3312 0.913452 17.9055 1.53589 18.1831C2.57078 18.6407 3.41669 19.3493 3.95964 20.2735C4.50108 21.1992 4.70056 22.271 4.58807 23.3827C4.52058 24.05 4.74856 24.8058 5.37399 25.3211C6.70394 26.4182 8.21724 27.2799 9.84653 27.8677C10.1948 27.9903 10.5682 28.0271 10.9343 27.9749C11.3003 27.9226 11.6478 27.783 11.9463 27.568C12.8687 26.9155 13.9141 26.5479 15 26.5479C16.0859 26.5479 17.1298 26.9155 18.0522 27.568C18.6071 27.9607 19.387 28.1438 20.1535 27.8677C21.7828 27.2799 23.2961 26.4182 24.626 25.3211C25.2514 24.8058 25.4809 24.0514 25.4119 23.3827C25.2994 22.271 25.4974 21.1977 26.0419 20.2735C26.5833 19.3479 27.4292 18.6422 28.4641 18.1831C29.085 17.907 29.637 17.3312 29.7765 16.5384C30.0745 14.8583 30.0745 13.14 29.7765 11.4599C29.7108 11.1013 29.5569 10.764 29.3281 10.4775C29.0993 10.1911 28.8026 9.96419 28.4641 9.81674C27.4292 9.3576 26.5833 8.65044 26.0404 7.72479C25.4974 6.80061 25.2994 5.72733 25.4119 4.61566C25.4516 4.25396 25.4007 3.88821 25.2637 3.55033C25.1267 3.21245 24.9077 2.9127 24.626 2.67725C23.2961 1.58008 21.7828 0.718412 20.1535 0.130592C19.8052 0.00797782 19.4318 -0.0288153 19.0657 0.0234273C18.6997 0.0756699 18.3522 0.215358 18.0537 0.430285C17.1298 1.08134 16.0844 1.45042 15 1.45042C13.9156 1.45042 12.8702 1.08282 11.9478 0.430285ZM10.5005 13.9992C10.5005 12.8245 10.9745 11.698 11.8183 10.8674C12.6622 10.0368 13.8067 9.57019 15 9.57019C16.1934 9.57019 17.3378 10.0368 18.1817 10.8674C19.0255 11.698 19.4995 12.8245 19.4995 13.9992C19.4995 15.1738 19.0255 16.3003 18.1817 17.1309C17.3378 17.9615 16.1934 18.4281 15 18.4281C13.8067 18.4281 12.6622 17.9615 11.8183 17.1309C10.9745 16.3003 10.5005 15.1738 10.5005 13.9992Z" fill="white"/>
</svg>
