<svg width="45" height="45" viewBox="0 0 45 45" fill="none" xmlns="http://www.w3.org/2000/svg">
<g id="[icon] User">
<path id="Vector" d="M31.5 18C31.5 22.98 27.48 27 22.5 27C17.52 27 13.5 22.98 13.5 18C13.5 13.02 17.52 9 22.5 9C27.48 9 31.5 13.02 31.5 18Z" fill="white"/>
<path id="Vector_2" fill-rule="evenodd" clip-rule="evenodd" d="M45 22.5C45 34.9313 34.9313 45 22.5 45C10.0687 45 0 34.9313 0 22.5C0 10.0687 10.0687 0 22.5 0C34.9313 0 45 10.0687 45 22.5ZM11.25 38.6719C11.7 37.9238 16.0594 30.9375 22.4719 30.9375C28.8562 30.9375 33.2437 37.9406 33.6937 38.6719C36.309 36.8634 38.4458 34.4467 39.9205 31.6297C41.3951 28.8127 42.1635 25.6796 42.1594 22.5C42.1594 11.6156 33.3563 2.8125 22.4719 2.8125C11.5875 2.8125 2.78437 11.6156 2.78437 22.5C2.78437 29.1938 6.13125 35.1281 11.25 38.6719Z" fill="white"/>
</g>
</svg>
