<svg width="30" height="30" viewBox="0 0 30 30" fill="none" xmlns="http://www.w3.org/2000/svg">
<g id="[icon] User settings (pop-up)">
<path id="Vector" d="M13.2275 0C11.1965 0 9.24863 0.818065 7.81247 2.27423C6.37631 3.73039 5.56948 5.70538 5.56948 7.76471C5.56948 9.82403 6.37631 11.799 7.81247 13.2552C9.24863 14.7113 11.1965 15.5294 13.2275 15.5294C15.2586 15.5294 17.2064 14.7113 18.6426 13.2552C20.0787 11.799 20.8855 9.82403 20.8855 7.76471C20.8855 5.70538 20.0787 3.73039 18.6426 2.27423C17.2064 0.818065 15.2586 0 13.2275 0ZM24.3665 15.1765V17.1191C25.362 17.3788 26.249 17.9096 26.9479 18.6325L28.6076 17.6598L30 20.1049L28.3417 21.0762C28.6128 22.0655 28.6128 23.111 28.3417 24.1002L30 25.0715L28.6076 27.5167L26.9479 26.544C26.2391 27.277 25.3466 27.8002 24.3665 28.0574V30H21.5817V28.0574C20.6016 27.8002 19.7091 27.277 19.0003 26.544L17.3392 27.5167L15.9468 25.0715L17.6065 24.1002C17.3354 23.111 17.3354 22.0655 17.6065 21.0762L15.9468 20.1049L17.3392 17.6598L19.0003 18.6311C19.7093 17.8986 20.6017 17.3759 21.5817 17.1191V15.1765H24.3665ZM20.5361 21.2231C20.308 21.6409 20.1883 22.1107 20.188 22.5882C20.188 23.0824 20.3147 23.5482 20.5361 23.9534L20.5862 24.0424C20.8336 24.4605 21.1836 24.8065 21.602 25.0467C22.0205 25.287 22.4932 25.4132 22.9741 25.4132C23.455 25.4132 23.9277 25.287 24.3462 25.0467C24.7646 24.8065 25.1146 24.4605 25.362 24.0424L25.4121 23.9534C25.6335 23.5482 25.7588 23.0838 25.7588 22.5882C25.7588 22.0941 25.6335 21.6282 25.4121 21.2231L25.3606 21.1341C25.1131 20.7163 24.7632 20.3706 24.3449 20.1306C23.9265 19.8906 23.4541 19.7644 22.9734 19.7644C22.4927 19.7644 22.0203 19.8906 21.6019 20.1306C21.1836 20.3706 20.8337 20.7163 20.5862 21.1341L20.5361 21.2231ZM15.4024 16.9412C14.2127 18.5766 13.5723 20.5561 13.5756 22.5882C13.5723 24.6204 14.2127 26.5999 15.4024 28.2353H0V25.4118C0 23.1652 0.880174 21.0107 2.44689 19.4222C4.01361 17.8336 6.13854 16.9412 8.35422 16.9412H15.4024Z" fill="white"/>
</g>
</svg>
