<svg width="30" height="30" viewBox="0 0 30 30" fill="none" xmlns="http://www.w3.org/2000/svg">
<g id="[icon] To the personal page (pop-up)">
<path id="Vector" d="M13.2548 0C11.2196 0 9.26773 0.831128 7.82863 2.31055C6.38953 3.78996 5.58105 5.79648 5.58105 7.8887C5.58105 9.98091 6.38953 11.9874 7.82863 13.4668C9.26773 14.9463 11.2196 15.7774 13.2548 15.7774C15.29 15.7774 17.2418 14.9463 18.6809 13.4668C20.12 11.9874 20.9285 9.98091 20.9285 7.8887C20.9285 5.79648 20.12 3.78996 18.6809 2.31055C17.2418 0.831128 15.29 0 13.2548 0ZM23.5403 17.9203L20.0802 21.5175H30.0002V24.3861H20.0802L23.5403 27.9834L21.5563 30L14.7783 22.9518L21.5563 15.9036L23.5403 17.9203Z" fill="white"/>
<path id="Vector_2" d="M15.1744 17.2117C13.9272 18.8489 13.2511 20.8694 13.2546 22.9489C13.2546 25.1133 13.9717 27.1041 15.1744 28.6861H0V25.8175C0 23.5351 0.881975 21.3462 2.4519 19.7323C4.02183 18.1184 6.1511 17.2117 8.37132 17.2117H15.1744Z" fill="white"/>
</g>
</svg>
