<svg width="20" height="12" viewBox="0 0 20 12" fill="none" xmlns="http://www.w3.org/2000/svg">
<path d="M19.8383 5.72792C17.7425 2.15943 14.0672 0 10 0C5.93284 0 2.25124 2.15943 0.174129 5.72792L0 5.99714L0.161692 6.27208C2.25746 9.84057 5.93284 12 10 12C14.0672 12 17.7488 9.86921 19.8383 6.27208L20 5.99714L19.8383 5.72792ZM10 10.8258C6.49876 10.8258 3.28358 9.02721 1.41791 5.99714C3.28358 2.96706 6.49876 1.1685 10 1.1685C13.5012 1.1685 16.6791 2.97279 18.5759 5.99714C16.6791 9.02721 13.495 10.8258 10 10.8258Z" fill="#939393"/>
<path d="M9.97081 2.00011C9.18021 2.00588 8.40905 2.24581 7.75473 2.6896C7.10041 3.13339 6.59228 3.76113 6.29452 4.49354C5.99676 5.22595 5.92273 6.03017 6.08177 6.80463C6.24081 7.57909 6.62579 8.28905 7.18809 8.84484C7.75039 9.40063 8.46479 9.77732 9.24105 9.92734C10.0173 10.0773 10.8206 9.99395 11.5495 9.68768C12.2784 9.38142 12.9002 8.86601 13.3363 8.20657C13.7725 7.54713 14.0034 6.77323 14 5.98261C13.9977 5.45634 13.8916 4.93569 13.6877 4.4505C13.4838 3.96531 13.1862 3.52512 12.8119 3.15515C12.4376 2.78519 11.994 2.49272 11.5065 2.29452C11.0189 2.09631 10.4971 1.99627 9.97081 2.00011ZM9.97081 8.83392C9.41236 8.82817 8.86806 8.65753 8.40627 8.34344C7.94448 8.02934 7.5858 7.5858 7.37527 7.06853C7.16473 6.55125 7.11174 5.98329 7.22294 5.43599C7.33415 4.8887 7.60459 4.38646 8.0003 3.99236C8.39601 3.59826 8.89935 3.32987 9.4471 3.2209C9.99484 3.11193 10.5626 3.16724 11.079 3.37989C11.5954 3.59253 12.0375 3.95302 12.3497 4.41608C12.6619 4.87915 12.8303 5.42414 12.8338 5.98261C12.8353 6.35847 12.7623 6.7309 12.6188 7.0783C12.4753 7.4257 12.2643 7.74117 11.998 8.0064C11.7317 8.27163 11.4154 8.48135 11.0674 8.62341C10.7194 8.76546 10.3467 8.83701 9.97081 8.83392Z" fill="#939393"/>
</svg>
